<?xml version="1.0" encoding="UTF-8" standalone="no"?>
<svg
   xmlns:dc="http://purl.org/dc/elements/1.1/"
   xmlns:cc="http://creativecommons.org/ns#"
   xmlns:rdf="http://www.w3.org/1999/02/22-rdf-syntax-ns#"
   xmlns:svg="http://www.w3.org/2000/svg"
   xmlns="http://www.w3.org/2000/svg"
   xmlns:sodipodi="http://sodipodi.sourceforge.net/DTD/sodipodi-0.dtd"
   xmlns:inkscape="http://www.inkscape.org/namespaces/inkscape"
   width="140.17101mm"
   height="49.25mm"
   viewBox="0 0 140.17101 49.25"
   version="1.1"
   id="svg8"
   inkscape:export-filename="/Users/nodrov/Desktop/logo_from_vector.png"
   inkscape:export-xdpi="371.10999"
   inkscape:export-ydpi="371.10999"
   inkscape:version="1.0.1 (c497b03c, 2020-09-10)"
   sodipodi:docname="logo.svg">
  <defs
     id="defs2">
    <rect
       x="78.999001"
       y="115.36362"
       width="89.747162"
       height="21.496326"
       id="rect1028" />
  </defs>
  <sodipodi:namedview
     id="base"
     pagecolor="#ffffff"
     bordercolor="#666666"
     borderopacity="1.0"
     inkscape:pageopacity="0.0"
     inkscape:pageshadow="2"
     inkscape:zoom="0.46990747"
     inkscape:cx="111.35821"
     inkscape:cy="186.77969"
     inkscape:document-units="mm"
     inkscape:current-layer="layer1"
     inkscape:document-rotation="0"
     showgrid="false"
     inkscape:window-width="1440"
     inkscape:window-height="803"
     inkscape:window-x="0"
     inkscape:window-y="23"
     inkscape:window-maximized="1"
     fit-margin-top="0"
     fit-margin-left="0"
     fit-margin-right="0"
     fit-margin-bottom="0" />
  <metadata
     id="metadata5">
    <rdf:RDF>
      <cc:Work
         rdf:about="">
        <dc:format>image/svg+xml</dc:format>
        <dc:type
           rdf:resource="http://purl.org/dc/dcmitype/StillImage" />
        <dc:title></dc:title>
      </cc:Work>
    </rdf:RDF>
  </metadata>
  <g
     inkscape:label="Layer 1"
     inkscape:groupmode="layer"
     id="layer1"
     transform="translate(-35.422001,-100.024)">
    <rect
       style="mix-blend-mode:multiply;fill:#3b113e;fill-opacity:1;stroke:none;stroke-width:0.096057;stroke-opacity:1"
       id="rect1032"
       width="140.17101"
       height="49.25"
       x="35.422001"
       y="100.024"
       inkscape:export-filename="/Users/nodrov/Desktop/rect1032.png"
       inkscape:export-xdpi="371.10999"
       inkscape:export-ydpi="371.10999" />
    <path
       id="path943-3"
       style="fill:#d8b836;fill-opacity:1;stroke:none;stroke-width:0.271198;stroke-opacity:1"
       d="m 74.46101,124.42329 a 2.05,2.05 0 0 1 -2.05,2.05 2.05,2.05 0 0 1 -2.05,-2.05 2.05,2.05 0 0 1 2.05,-2.05 2.05,2.05 0 0 1 2.05,2.05 z m -27.211213,1e-5 a 2.05,2.05 0 0 1 -2.049999,2.05 2.05,2.05 0 0 1 -2.05,-2.05 2.05,2.05 0 0 1 2.05,-2.05 2.05,2.05 0 0 1 2.049999,2.05 z m 23.451035,10.563 a 2.05,2.05 0 0 0 -2.05,-2.05 2.05,2.05 0 0 0 -2.05,2.05 2.05,2.05 0 0 0 2.05,2.05 2.05,2.05 0 0 0 2.05,-2.05 z m -9.727379,4.19612 a 2.05,2.05 0 0 0 -2.05,-2.05 2.05,2.05 0 0 0 -2.05,2.05 2.05,2.05 0 0 0 2.05,2.05 2.05,2.05 0 0 0 2.05,-2.05 z m -9.70916,-4.21434 a 2.05,2.05 0 0 0 -2.05,-2.05 2.05,2.05 0 0 0 -2.05,2.05 2.05,2.05 0 0 0 2.05,2.05 2.05,2.05 0 0 0 2.05,-2.05 z m 19.382065,-21.22582 a 2.05,2.05 0 0 1 -2.05,2.05 2.05,2.05 0 0 1 -2.05,-2.05 2.05,2.05 0 0 1 2.05,-2.05 2.05,2.05 0 0 1 2.05,2.05 z m -9.727375,-4.19612 a 2.05,2.05 0 0 1 -2.05,2.05 2.05,2.05 0 0 1 -2.05,-2.05 2.05,2.05 0 0 1 2.05,-2.05 2.05,2.05 0 0 1 2.05,2.05 z m -9.70916,4.21434 a 2.05,2.05 0 0 1 -2.05,2.05 2.05,2.05 0 0 1 -2.05,-2.05 2.05,2.05 0 0 1 2.05,-2.05 2.05,2.05 0 0 1 2.05,2.05 z m 7.674163,1.93131 c -4.691197,0 -8.5,3.8088 -8.5,8.5 0,4.69119 3.808803,8.5 8.5,8.5 4.691198,0 8.500001,-3.80881 8.5,-8.5 1e-6,-4.6912 -3.808802,-8.5 -8.5,-8.5 z m -0.05149,4.40663 c 2.4481,-0.0305 3.996298,2.05392 3.990391,4.24784 -0.0059,2.19392 -1.781376,4.20338 -3.990391,4.19635 -2.209015,-0.007 -3.807063,-1.98594 -3.835923,-4.09337 -0.02886,-2.10743 1.387823,-4.3203 3.835923,-4.35082 z" />
    <text
       xml:space="preserve"
       id="text1026"
       style="font-style:normal;font-variant:normal;font-weight:normal;font-stretch:normal;font-size:10.58329999999999949px;line-height:1.25;font-family:'Fredoka One';-inkscape-font-specification:'Fredoka One, Normal';font-variant-ligatures:normal;font-variant-caps:normal;font-variant-numeric:normal;font-variant-east-asian:normal;white-space:pre;shape-inside:url(#rect1028);fill:#ffffff;fill-opacity:1;stroke:none;"
       transform="matrix(1.9974416,0,0,1.9974416,-79.059843,-118.62226)"><tspan
         x="78.998047"
         y="125.20531"><tspan
           style="font-style:normal;font-variant:normal;font-weight:normal;font-stretch:normal;font-size:10.5833px;font-family:'Fredoka One';-inkscape-font-specification:'Fredoka One, Normal';font-variant-ligatures:normal;font-variant-caps:normal;font-variant-numeric:normal;font-variant-east-asian:normal;fill:#ffffff;fill-opacity:1">Gongsun</tspan></tspan></text>
  </g>
</svg>
